<?xml version="1.0" standalone="no"?>
<!DOCTYPE svg PUBLIC "-//W3C//DTD SVG 20010904//EN"
 "http://www.w3.org/TR/2001/REC-SVG-20010904/DTD/svg10.dtd">
<svg version="1.0" xmlns="http://www.w3.org/2000/svg"
 width="300.000000pt" height="201.000000pt" viewBox="0 0 300.000000 201.000000"
 preserveAspectRatio="xMidYMid meet">
<metadata>
Created by potrace 1.10, written by Peter Selinger 2001-2011
</metadata>
<g transform="translate(0.000000,201.000000) scale(0.100000,-0.100000)"
fill="#000000" stroke="none">
<path d="M1948 1545 l-356 -224 -60 10 c-53 10 -61 14 -67 37 -3 15 -29 98
-57 185 -46 145 -52 157 -74 157 -20 0 -24 -5 -24 -32 -2 -85 -19 -360 -23
-364 -3 -3 -99 62 -214 145 -121 88 -217 151 -230 151 -53 0 -25 -43 162 -245
127 -136 184 -204 180 -215 -4 -8 -11 -34 -18 -57 -6 -24 -14 -43 -17 -43 -6
0 -621 -119 -727 -141 -46 -9 -53 -14 -53 -34 0 -28 -39 -22 490 -76 408 -41
440 -47 440 -84 0 -6 24 -99 54 -206 30 -107 59 -213 65 -236 10 -36 16 -43
36 -43 l25 0 0 220 c0 230 0 228 40 222 3 -1 138 -53 300 -117 162 -63 305
-115 318 -115 16 0 22 6 22 23 0 19 -41 53 -209 177 -178 130 -208 155 -199
170 6 9 51 29 102 44 301 91 316 97 316 121 0 25 -15 28 -220 40 -52 3 -105 8
-117 11 -52 10 -29 45 247 376 270 323 300 368 248 368 -13 0 -183 -101 -380
-225z m345 156 c-10 -16 -119 -150 -243 -297 -257 -307 -260 -310 -260 -345 0
-51 29 -63 171 -70 75 -4 135 -11 142 -18 6 -6 8 -12 4 -12 -39 -7 -294 -90
-326 -107 -19 -9 -40 -27 -48 -38 -13 -20 -11 -24 19 -53 18 -17 80 -65 138
-108 153 -111 210 -155 217 -166 10 -17 -57 4 -207 63 -345 137 -381 149 -405
140 -13 -5 -27 -15 -32 -22 -4 -7 -10 -96 -13 -198 l-5 -185 -54 190 c-29 105
-58 207 -64 227 -17 62 -45 80 -139 90 -135 14 -387 40 -533 53 -125 12 -226
28 -218 35 4 4 105 26 223 49 118 23 233 46 255 51 22 5 54 11 70 14 169 25
188 35 211 112 16 55 16 55 -10 94 -14 21 -40 54 -58 72 -61 62 -226 243 -249
272 -35 44 -9 30 137 -75 202 -146 253 -179 268 -173 25 10 36 58 38 163 1
101 20 212 31 181 3 -8 26 -78 51 -155 25 -77 54 -147 64 -156 10 -10 42 -20
77 -23 l60 -7 340 215 c187 118 346 215 353 215 10 1 9 -6 -5 -28z"/>
</g>
</svg>
